<svg xmlns="http://www.w3.org/2000/svg" viewBox="0 0 500 500"><g id="freepik--Shadow--inject-21"><ellipse id="freepik--path--inject-21" cx="250" cy="416.24" rx="193.89" ry="11.32" style="fill:#f5f5f5"></ellipse></g><g id="freepik--Interface--inject-21"><rect x="167.79" y="133.07" width="250.02" height="186.73" style="fill:#C53F3F"></rect><rect x="167.79" y="133.07" width="250.02" height="186.73" style="fill:#fff;opacity:0.8"></rect><rect x="158.56" y="127.26" width="249.49" height="12.66" style="fill:#C53F3F"></rect><path d="M196.8,134.38H155.66a1.84,1.84,0,0,1-1.85-1.84h0a1.85,1.85,0,0,1,1.85-1.85H196.8a1.85,1.85,0,0,1,1.85,1.85h0A1.84,1.84,0,0,1,196.8,134.38Z" style="fill:#C53F3F"></path><path d="M196.8,134.38H155.66a1.84,1.84,0,0,1-1.85-1.84h0a1.85,1.85,0,0,1,1.85-1.85H196.8a1.85,1.85,0,0,1,1.85,1.85h0A1.84,1.84,0,0,1,196.8,134.38Z" style="fill:#fff;opacity:0.8"></path><circle cx="375.48" cy="126.08" r="3.3" style="fill:#C53F3F"></circle><circle cx="375.48" cy="126.08" r="3.3" style="fill:#fff;opacity:0.8"></circle><circle cx="386.56" cy="126.08" r="3.3" style="fill:#C53F3F"></circle><circle cx="386.56" cy="126.08" r="3.3" style="fill:#fff;opacity:0.8"></circle><circle cx="397.64" cy="126.08" r="3.3" style="fill:#C53F3F"></circle><circle cx="397.64" cy="126.08" r="3.3" style="fill:#fff;opacity:0.8"></circle><rect x="316.76" y="141.89" width="54.62" height="88.24" transform="translate(530.07 -158.05) rotate(90)" style="fill:#C53F3F"></rect><rect x="316.76" y="141.89" width="54.62" height="88.24" transform="translate(530.07 -158.05) rotate(90)" style="fill:#fff;opacity:0.5"></rect><rect x="323.23" y="137.42" width="41.67" height="86.24" transform="translate(524.6 -163.52) rotate(90)" style="fill:#fff"></rect><polygon points="341.65 210.03 347.32 207.35 341.65 204.69 341.65 210.03" style="fill:#fff"></polygon><polygon points="361.74 204.69 361.74 207.24 356.33 204.69 356.33 210.03 361.74 207.47 361.74 210.03 362.29 210.03 362.29 204.69 361.74 204.69" style="fill:#fff"></polygon><polygon points="326.38 204.69 325.83 204.69 325.83 210.03 326.38 210.03 326.38 207.47 331.8 210.03 331.8 204.69 326.38 207.24 326.38 204.69" style="fill:#fff"></polygon><rect x="364.4" y="217.85" width="54.62" height="88.24" transform="translate(653.67 -129.74) rotate(90)" style="fill:#C53F3F"></rect><rect x="364.4" y="217.85" width="54.62" height="88.24" transform="translate(653.67 -129.74) rotate(90)" style="fill:#fff;opacity:0.5"></rect><polygon points="390.74 261.97 348.58 236.25 348.58 287.69 390.74 261.97" style="fill:#fff"></polygon><polygon points="433.86 235.66 349.54 235.66 391.7 261.38 433.86 235.66" style="fill:#fff"></polygon><polygon points="391.7 262.55 349.54 288.27 433.86 288.27 391.7 262.55" style="fill:#fff"></polygon><polygon points="392.66 261.97 434.82 287.69 434.82 236.25 392.66 261.97" style="fill:#fff"></polygon><path d="M429.81,225.64H345.68a2.24,2.24,0,0,0-2.24,2.24h0a2.24,2.24,0,0,0,2.24,2.24h84.13a2.24,2.24,0,0,0,2.24-2.24h0A2.24,2.24,0,0,0,429.81,225.64Z" style="fill:#C53F3F"></path><path d="M429.81,225.64H345.68a2.24,2.24,0,0,0-2.24,2.24h0a2.24,2.24,0,0,0,2.24,2.24h84.13a2.24,2.24,0,0,0,2.24-2.24h0A2.24,2.24,0,0,0,429.81,225.64Z" style="fill:#fff;opacity:0.5"></path><rect x="292.01" y="150.21" width="88.62" height="4.48" rx="2.24" style="fill:#C53F3F"></rect><rect x="292.01" y="150.21" width="88.62" height="4.48" rx="2.24" style="fill:#fff;opacity:0.5"></rect><rect x="154.34" y="150.21" width="88.62" height="4.48" rx="2.24" style="fill:#C53F3F"></rect><rect x="154.34" y="150.21" width="88.62" height="4.48" rx="2.24" style="fill:#fff;opacity:0.5"></rect><path d="M304.22,261H239.15a1.2,1.2,0,0,0-1.2,1.2h0a1.2,1.2,0,0,0,1.2,1.2h65.07a1.2,1.2,0,0,0,1.2-1.2h0A1.2,1.2,0,0,0,304.22,261Z" style="fill:#C53F3F"></path><path d="M304.22,261H239.15a1.2,1.2,0,0,0-1.2,1.2h0a1.2,1.2,0,0,0,1.2,1.2h65.07a1.2,1.2,0,0,0,1.2-1.2h0A1.2,1.2,0,0,0,304.22,261Z" style="fill:#fff;opacity:0.5"></path><path d="M304.22,266.75H239.15A1.2,1.2,0,0,0,238,268h0a1.19,1.19,0,0,0,1.2,1.2h65.07a1.2,1.2,0,0,0,1.2-1.2h0A1.2,1.2,0,0,0,304.22,266.75Z" style="fill:#C53F3F"></path><path d="M304.22,266.75H239.15A1.2,1.2,0,0,0,238,268h0a1.19,1.19,0,0,0,1.2,1.2h65.07a1.2,1.2,0,0,0,1.2-1.2h0A1.2,1.2,0,0,0,304.22,266.75Z" style="fill:#fff;opacity:0.5"></path><path d="M304.22,272.55H239.15a1.2,1.2,0,0,0-1.2,1.21h0a1.2,1.2,0,0,0,1.2,1.2h65.07a1.2,1.2,0,0,0,1.2-1.2h0A1.21,1.21,0,0,0,304.22,272.55Z" style="fill:#C53F3F"></path><path d="M304.22,272.55H239.15a1.2,1.2,0,0,0-1.2,1.21h0a1.2,1.2,0,0,0,1.2,1.2h65.07a1.2,1.2,0,0,0,1.2-1.2h0A1.21,1.21,0,0,0,304.22,272.55Z" style="fill:#fff;opacity:0.5"></path><path d="M304.22,278.36H239.15a1.19,1.19,0,0,0-1.2,1.2h0a1.2,1.2,0,0,0,1.2,1.2h65.07a1.2,1.2,0,0,0,1.2-1.2h0A1.2,1.2,0,0,0,304.22,278.36Z" style="fill:#C53F3F"></path><path d="M304.22,278.36H239.15a1.19,1.19,0,0,0-1.2,1.2h0a1.2,1.2,0,0,0,1.2,1.2h65.07a1.2,1.2,0,0,0,1.2-1.2h0A1.2,1.2,0,0,0,304.22,278.36Z" style="fill:#fff;opacity:0.5"></path><path d="M304.22,284.16H239.15a1.2,1.2,0,0,0-1.2,1.2h0a1.2,1.2,0,0,0,1.2,1.2h65.07a1.2,1.2,0,0,0,1.2-1.2h0A1.2,1.2,0,0,0,304.22,284.16Z" style="fill:#C53F3F"></path><path d="M304.22,284.16H239.15a1.2,1.2,0,0,0-1.2,1.2h0a1.2,1.2,0,0,0,1.2,1.2h65.07a1.2,1.2,0,0,0,1.2-1.2h0A1.2,1.2,0,0,0,304.22,284.16Z" style="fill:#fff;opacity:0.5"></path><path d="M304.22,290H239.15a1.2,1.2,0,0,0-1.2,1.2h0a1.19,1.19,0,0,0,1.2,1.2h65.07a1.2,1.2,0,0,0,1.2-1.2h0A1.2,1.2,0,0,0,304.22,290Z" style="fill:#C53F3F"></path><path d="M304.22,290H239.15a1.2,1.2,0,0,0-1.2,1.2h0a1.19,1.19,0,0,0,1.2,1.2h65.07a1.2,1.2,0,0,0,1.2-1.2h0A1.2,1.2,0,0,0,304.22,290Z" style="fill:#fff;opacity:0.5"></path><path d="M284.22,295.76H239.15A1.2,1.2,0,0,0,238,297h0a1.19,1.19,0,0,0,1.2,1.2h45.07a1.2,1.2,0,0,0,1.2-1.2h0A1.2,1.2,0,0,0,284.22,295.76Z" style="fill:#C53F3F"></path><path d="M284.22,295.76H239.15A1.2,1.2,0,0,0,238,297h0a1.19,1.19,0,0,0,1.2,1.2h45.07a1.2,1.2,0,0,0,1.2-1.2h0A1.2,1.2,0,0,0,284.22,295.76Z" style="fill:#fff;opacity:0.5"></path><rect x="196.7" y="160.07" width="82.49" height="88.24" transform="translate(442.14 -33.75) rotate(90)" style="fill:#C53F3F"></rect><rect x="196.7" y="160.07" width="82.49" height="88.24" transform="translate(442.14 -33.75) rotate(90)" style="fill:#fff;opacity:0.5"></rect><rect x="197.7" y="161.07" width="80.49" height="86.24" transform="translate(442.14 -33.75) rotate(90)" style="fill:#fff"></rect><rect x="281.21" y="162.09" width="1.71" height="1.71" style="fill:#C53F3F"></rect><rect x="281.21" y="244.59" width="1.71" height="1.71" style="fill:#C53F3F"></rect><rect x="192.97" y="162.06" width="1.71" height="1.71" style="fill:#C53F3F"></rect><rect x="192.97" y="244.59" width="1.71" height="1.71" style="fill:#C53F3F"></rect></g><g id="freepik--Text--inject-21"><path d="M99.55,192.79H66.91V160.14H99.55Zm-31.64-1H98.55V161.14H67.91Z" style="fill:#C53F3F"></path><g style="opacity:0.5"><path d="M99.55,192.79H66.91V160.14H99.55Zm-31.64-1H98.55V161.14H67.91Z" style="fill:#fff"></path></g><path d="M82.52,171.78H77.25v-1.91H90v1.91H84.7v13.46H82.52Z" style="fill:#C53F3F"></path><rect x="98.07" y="159.65" width="1.98" height="1.98" style="fill:#C53F3F"></rect><rect x="98.07" y="191.3" width="1.98" height="1.98" style="fill:#C53F3F"></rect><rect x="66.42" y="191.3" width="1.98" height="1.98" style="fill:#C53F3F"></rect><rect x="66.42" y="159.65" width="1.98" height="1.98" style="fill:#C53F3F"></rect></g><g id="freepik--Image--inject-21"><path d="M306.73,360.78H274.08V328.13h32.65Zm-31.65-1h30.65V329.13H275.08Z" style="fill:#C53F3F"></path><g style="opacity:0.5"><path d="M306.73,360.78H274.08V328.13h32.65Zm-31.65-1h30.65V329.13H275.08Z" style="fill:#fff"></path></g><rect x="305.24" y="327.64" width="1.98" height="1.98" style="fill:#C53F3F"></rect><rect x="305.24" y="359.29" width="1.98" height="1.98" style="fill:#C53F3F"></rect><rect x="273.59" y="359.29" width="1.98" height="1.98" style="fill:#C53F3F"></rect><rect x="273.59" y="327.64" width="1.98" height="1.98" style="fill:#C53F3F"></rect><polygon points="276 349.01 282.52 342.48 288.13 348.09 297.62 338.59 304.81 345.78 304.81 358.9 276 358.9 276 349.01" style="fill:#C53F3F"></polygon><path d="M287.47,335.49a2.31,2.31,0,1,1-2.31-2.31A2.32,2.32,0,0,1,287.47,335.49Z" style="fill:#C53F3F"></path></g><g id="freepik--Character--inject-21"><g id="freepik--group--inject-21"><path d="M112.24,190.47s-14.06,17.38-15.62,21.84,3.76,35.47,3.76,35.47-3.49,7.37-1.27,9.06,6,5,7,2.9,1.56-9.58,1.56-9.58l-1.57-1.86s-1.44-31.73-1.27-32.8,14.88-17.23,14.88-17.23Z" style="fill:#9f5b53"></path><polygon points="113.15 185.41 101.54 201.55 109.82 210.63 122.1 205.9 113.15 185.41" style="fill:#C53F3F"></polygon><polygon points="122.1 205.9 119.68 206.83 112.53 209.58 109.82 210.63 101.54 201.55 113.15 185.41 122.1 205.9" style="fill:#fff;opacity:0.7000000000000001"></polygon><path d="M119.68,206.83l-7.15,2.75a19.87,19.87,0,0,1,3.24-10.8Z" style="opacity:0.2;isolation:isolate"></path><polygon points="101.72 199.57 111.42 210.65 109.24 212.33 100.04 201.75 101.72 199.57" style="fill:#C53F3F"></polygon><polygon points="101.72 199.57 111.42 210.65 109.24 212.33 100.04 201.75 101.72 199.57" style="fill:#fff;opacity:0.6000000000000001"></polygon><path d="M139.81,158a.36.36,0,0,0,.33-.16,2.85,2.85,0,0,1,2.17-1.31.35.35,0,0,0,0-.7h0a3.49,3.49,0,0,0-2.75,1.62.36.36,0,0,0,.08.49h0A.52.52,0,0,0,139.81,158Z" style="fill:#263238"></path><path d="M141.94,161.13c.07.59.51,1,.9.93s.6-.61.49-1.2-.52-1-.9-.92S141.83,160.54,141.94,161.13Z" style="fill:#263238"></path><path d="M141.75,162.54a21.19,21.19,0,0,0,3.21,4.89,3.46,3.46,0,0,1-2.82.74Z" style="fill:#a24e3f"></path><path d="M142.2,170.33a10.52,10.52,0,0,1-.31,1,10.16,10.16,0,0,1-3.63,4.84,10.82,10.82,0,0,1-1.33.82,9.21,9.21,0,0,1-11-1.75c-3.68-3.71-3.58-8-4-15.26a9.73,9.73,0,0,1,.74-4.56,9.94,9.94,0,0,1,13-5.37C142.8,153,143.78,163.8,142.2,170.33Z" style="fill:#9f5b53"></path><path d="M138.26,176.21a10.82,10.82,0,0,1-1.33.82,9.23,9.23,0,0,1-8,.35,11,11,0,0,1,1.29-2.46A14.34,14.34,0,0,1,138.26,176.21Z" style="opacity:0.2;isolation:isolate"></path><path d="M123.65,185.63c3.57,3.24,12.33,2,12.33,2s5.47-1.49,4.32-3.2c-3.22-.53-4.78-2-5.42-4a9.48,9.48,0,0,1-.33-3.68,20.55,20.55,0,0,1,.27-2.05l-10.83-8C125.41,172.05,127.15,181.79,123.65,185.63Z" style="fill:#9f5b53"></path><path d="M133.62,147s1.92-1.17,5.19,1.92c2.76,2.6,0,4.69,1.65,8s-.58,6.63-.58,6.63-1.59,3.43-4.36,3.22c0,0-2.26,2.73-1.9,5.57s-3.71,5.07-9.25,5-3.32-3.53-3.32-3.53a22.86,22.86,0,0,1-3.84-6.21,21.26,21.26,0,0,1-1.58-8.67,11.65,11.65,0,0,1,3.2-8.4C122.53,146.35,131.34,144.26,133.62,147Z" style="fill:#263238"></path><path d="M134.13,165.18a4.66,4.66,0,0,0,2.42,3.22c1.47.63,2.45-1.45,2.23-3.64-.2-1.93-1.2-4.65-2.78-4.29S133.62,163.23,134.13,165.18Z" style="fill:#9f5b53"></path><path d="M116.48,161.41s-.23-3.6.55-4.07,4.51-1.21,5.13-.65,1.41,3.9,1.41,3.9S119.42,162,116.48,161.41Z" style="fill:#263238"></path><path d="M135.35,142c7-.95,6.33,4.61,1.06,12.92-3.69,5.8-18.11,21.52-23.61,14.11C109.77,164.89,120.71,143.92,135.35,142Z" style="fill:#C53F3F"></path><path d="M135.35,142c7-.95,6.33,4.61,1.06,12.92-3.69,5.8-18.11,21.52-23.61,14.11C109.77,164.89,120.71,143.92,135.35,142Z" style="fill:#fff;opacity:0.2"></path><path d="M128.89,156.58c-4.35,5.54-13.19,7.12-13.19,7.12l-4.61-9.49c2.37-7.78,10.68-11.47,10.68-11.47L131.4,146S133.24,151,128.89,156.58Z" style="fill:#C53F3F"></path><path d="M118.83,150.51c-4,4-5.24,5.81-7.74,3.7,2.37-7.78,10.68-11.47,10.68-11.47C123.11,143.34,122.88,146.55,118.83,150.51Z" style="fill:#fff;opacity:0.2"></path><path d="M122.79,184l1.19-4.55s9.49-1.58,15.33.8l1,4.18Z" style="fill:#C53F3F"></path><path d="M122.79,184l1.19-4.55s9.49-1.58,15.33.8l1,4.18Z" style="fill:#fff;opacity:0.6000000000000001"></path><polygon points="151.56 409.22 159.13 410.02 159.52 405.63 160.55 393.69 152.98 392.88 151.83 406.08 151.56 409.22" style="fill:#9f5b53"></polygon><polygon points="113.77 408.26 121.11 408.26 121.17 406.6 121.18 406.39 121.56 395.75 121.57 395.54 121.72 391.46 114.37 391.46 113.77 408.26" style="fill:#9f5b53"></polygon><polygon points="152.98 392.88 151.83 406.08 159.52 405.63 160.55 393.69 152.98 392.88" style="opacity:0.2;isolation:isolate"></polygon><polygon points="113.82 407.33 113.83 407.33 121.17 406.39 121.18 406.39 121.57 396.13 121.56 396.13 114.2 396.71 113.83 407.01 113.82 407.33" style="opacity:0.2;isolation:isolate"></polygon><path d="M122.13,407.82h-8.92a.65.65,0,0,0-.63.5l-1.44,6.54a1.08,1.08,0,0,0,.83,1.28,1,1,0,0,0,.24,0c2.89-.05,5-.23,8.61-.23,2.23,0,9,.24,12,.24s3.48-3.05,2.22-3.33c-5.65-1.23-9.91-2.94-11.72-4.56A1.77,1.77,0,0,0,122.13,407.82Z" style="fill:#263238"></path><path d="M159.94,407.59H151a.63.63,0,0,0-.62.5L149,414.63a1.08,1.08,0,0,0,.83,1.28,1,1,0,0,0,.24,0c2.89,0,5-.22,8.61-.22,2.23,0,9,.23,12,.23s3.49-3,2.23-3.32c-5.66-1.23-9.92-2.94-11.73-4.57A1.81,1.81,0,0,0,159.94,407.59Z" style="fill:#263238"></path><path d="M161.25,404.46H150.48s.88-99.65-10.76-133.3c-.82,11.13-1.75,22.67-2.65,32.29-.57,5.95-1.13,11.06-1.66,15-3.39,25.1-11.94,87-11.94,87H112.83s1.26-59.37,2.52-84c1.39-26.78,2-85.63,2.05-90.65h38.95C160.05,251.86,169.56,336.19,161.25,404.46Z" style="fill:#C53F3F"></path><path d="M139.72,271.12c-.82,11.12-1.75,22.69-2.65,32.3-1.33-13.88-2.95-23.78-2.95-23.78s-1.52-1.34-5.71-8.52,0-20.58,0-20.58C128.28,263,139.72,271.12,139.72,271.12Z" style="opacity:0.2;isolation:isolate"></path><polygon points="162.46 401.49 161.93 404.53 149.21 404.53 149.21 401.73 162.46 401.49" style="fill:#C53F3F"></polygon><polygon points="124.69 402.66 123.47 405.46 112.8 405.46 112.1 402.66 124.69 402.66" style="fill:#C53F3F"></polygon><path d="M118.82,231.57a1.91,1.91,0,0,1-1.94-2c.15-2.66,0-8.76-1.17-22.64-.58-6.62-1.41-13.83-2.56-21.5,0,0,21.31-5.59,36.08-.92,0,0,6.74,28.83,7.55,44.49a1.91,1.91,0,0,1-1.88,2Z" style="fill:#C53F3F"></path><path d="M118.82,231.57a1.91,1.91,0,0,1-1.94-2c.15-2.66,0-8.76-1.17-22.64-.58-6.62-1.41-13.83-2.56-21.5,0,0,21.31-5.59,36.08-.92,0,0,6.74,28.83,7.55,44.49a1.91,1.91,0,0,1-1.88,2Z" style="fill:#fff;opacity:0.7000000000000001"></path><polygon points="131.59 232.21 128.82 194.1 115.57 184.74 117.42 184.08 130.21 192.52 142.14 182.76 144.25 182.96 131.72 194.23 134.56 232.41 131.59 232.21" style="fill:#263238"></polygon><path d="M128.59,193.93l1.38-1.79a.24.24,0,0,1,.36,0l1.53,1.78a.23.23,0,0,1-.17.38h-2.92A.23.23,0,0,1,128.59,193.93Z" style="fill:#fff"></path><path d="M152.3,206.24c-3-2.71-4.57-12.84-4.71-13.24l2.95.88c.51,3.21,1.1,7.23,1.69,11.83h0Z" style="opacity:0.2;isolation:isolate"></path><path d="M151.16,195.94s16.14.06,21.31-1.49,15.68-25.71,15.68-25.71l7.81-3.81s-1.76-6-4.1-6.22-7.17,5.77-7.68,7.08-14,18.78-14.72,19.72-20.23-1-20.23-1Z" style="fill:#9f5b53"></path><path d="M149.23,184.49a21.44,21.44,0,0,0-1.42,9.15c.4,4.94,4.16,8.9,4.16,8.9l15.43-3.76.29-13.25Z" style="fill:#C53F3F"></path><path d="M149.23,184.49a21.44,21.44,0,0,0-1.42,9.15c.4,4.94,4.16,8.9,4.16,8.9l15.43-3.76.29-13.25Z" style="fill:#fff;opacity:0.7000000000000001"></path><polygon points="166.31 184.84 165.62 199.87 168.05 199.37 168.29 184.84 166.31 184.84" style="fill:#C53F3F"></polygon><polygon points="166.31 184.84 165.62 199.87 168.05 199.37 168.29 184.84 166.31 184.84" style="fill:#fff;opacity:0.6000000000000001"></polygon><polygon points="143.16 235.48 156.52 235.46 155.82 232.16 143.16 232.19 143.16 235.48" style="fill:#263238"></polygon><polygon points="124.47 232.22 117.45 232.23 117.35 235.53 124.47 235.51 124.47 232.22" style="fill:#263238"></polygon><polygon points="125.86 232.22 125.86 235.51 141.48 235.49 141.48 232.19 125.86 232.22" style="fill:#263238"></polygon><polygon points="162.46 401.49 161.93 404.53 149.21 404.53 149.21 401.73 162.46 401.49" style="opacity:0.2;isolation:isolate"></polygon><polygon points="124.69 402.66 123.47 405.46 112.8 405.46 112.1 402.66 124.69 402.66" style="opacity:0.2;isolation:isolate"></polygon></g></g></svg>